# AST/ASF file generated using VICON BodyLanguage
# -----------------------------------------------
:version 1.10
:name VICON
:units
  mass 1.0
  length 0.45
  angle deg
:documentation
   .ast/.asf automatically generated from VICON data using
   VICON BodyBuilder and BodyLanguage model FoxedUp or BRILLIANT.MOD
:root
   order TX TY TZ RX RY RZ
   axis XYZ
   position 0 0 0  
   orientation 0 0 0 
:bonedata
  begin
     id 1 
     name lhipjoint
     direction 0.612567 -0.751349 0.245431 
     length 2.42285 
     axis 0 0 0  XYZ
  end
  begin
     id 2 
     name lfemur
     direction 0.34202 -0.939693 0  
     length 7.11304  
     axis 0 0 20  XYZ
    dof rx ry rz
    limits (-160.0 20.0)
           (-70.0 70.0)
           (-60.0 70.0)
  end
  begin
     id 3 
     name ltibia
     direction 0.34202 -0.939693 0   
     length 7.84529   
     axis 0 0 20   XYZ
    dof rx
    limits (-10.0 170.0)
  end
  begin
     id 4 
     name lfoot
     direction 0.0779239 -0.214094 0.9737   
     length 1.97176   
     axis -90 7.62852e-016 20   XYZ
    dof rx rz
    limits (-45.0 90.0)
           (-70.0 20.0)
  end
  begin
     id 5 
     name ltoes
     direction 1.53565e-011 -4.21709e-011 1   
     length 0.993197   
     axis -90 7.62852e-016 20   XYZ
    dof rx
    limits (-90.0 20.0)
  end
  begin
     id 6 
     name rhipjoint
     direction -0.665722 -0.709315 0.231701   
     length 2.56642  
     axis 0 0 0  XYZ 
  end
  begin
     id 7 
     name rfemur
     direction -0.34202 -0.939693 0   
     length 7.32108   
     axis 0 0 -20   XYZ
    dof rx ry rz
    limits (-160.0 20.0)
           (-70.0 70.0)
           (-70.0 60.0)
  end
  begin
     id 8 
     name rtibia
     direction -0.34202 -0.939693 0   
     length 7.81254   
     axis 0 0 -20   XYZ
    dof rx
    limits (-10.0 170.0)
 end
 begin
     id 9 
     name rfoot
     direction -0.0832806 -0.228812 0.969902   
     length 2.08278  
     axis -90 -7.62852e-016 -20   XYZ
    dof rx rz
    limits (-45.0 90.0)
           (-20.0 70.0)
  end
  begin
     id 10 
     name rtoes
     direction -1.53589e-011 -4.22086e-011 1   
     length 1.04609   
     axis -90 -7.62852e-016 -20   XYZ
    dof rx
    limits (-90.0 20.0)
  end
  begin
     id 11 
     name lowerback
     direction -0.00506013 0.988403 -0.151766   
     length 2.01978   
     axis 0 0 0   XYZ
    dof rx ry rz
    limits (-20.0 45.0)
           (-30.0 30.0)
           (-30.0 30.0)
  end
  begin
     id 12 
     name upperback
     direction -0.00836389 0.99968 0.0238859   
     length 2.01276   
     axis 0 0 0   XYZ
    dof rx ry rz
    limits (-20.0 45.0)
           (-30.0 30.0)
           (-30.0 30.0)
  end
  begin
     id 13 
     name thorax
     direction -0.00684136 0.995386 0.0957043   
     length 2.07303   
     axis 0 0 0   XYZ
    dof rx ry rz
    limits (-20.0 45.0)
           (-30.0 30.0)
           (-30.0 30.0)
  end
  begin
     id 14 
     name lowerneck
     direction -0.0161045 0.999661 0.0204485   
     length 1.91243   
     axis 0 0 0   XYZ
    dof rx ry rz
    limits (-20.0 45.0)
           (-30.0 30.0)
           (-30.0 30.0)
  end
  begin
     id 15 
     name upperneck
     direction 0.0553583 0.990946 -0.122319   
     length 1.91574   
     axis 0 0 0   XYZ
    dof rx ry rz
    limits (-20.0 45.0)
           (-30.0 30.0)
           (-30.0 30.0)
  end
  begin
     id 16
     name head
     direction 0.0180273 0.998839 -0.0446756  
     length 1.92693  
     axis 0 0 0   XYZ
    dof rx ry rz
    limits (-20.0 45.0)
           (-30.0 30.0)
           (-30.0 30.0)
  end
  begin
     id 17 
     name lclavicle
     direction 0.945646 0.319323 -0.0615358  
     length 4.0076  
     axis 0 0 0   XYZ
    dof ry rz
    limits (-20.0 10.0)
           (0.0 20.0)
  end
  begin
     id 18 
     name lhumerus
     direction 1 -4.48967e-011 -2.79996e-027   
     length 5.64147   
     axis 180 -30 -90   XYZ
    dof rx ry rz
    limits (-60.0 90.0)
           (-90.0 90.0)
           (-90.0 90.0)
  end
  begin
     id 19
     name lradius
     direction 1 -4.48976e-011 -9.5122e-027   
     length 2.86444   
     axis 180 -30 -90   XYZ
    dof rx
    limits (-10.0 170.0)
  end
  begin
     id 20
     name lwrist
     direction 1 -4.48983e-011 -1.24047e-026   
     length 1.43222   
     axis 9.05591e-015 90 90   XYZ
    dof ry
    limits (-180.0 0.0)
 end
  begin
     id 21 
     name lhand
     direction 1 -4.4892e-011 -2.48094e-026   
     length 0.722123   
     axis 1.58305e-014 90 90   XYZ
    dof rx rz
    limits (-90.0 90.0)
           (-45.0 45.0)
  end
  begin
     id 22 
     name lfingers
     direction 1 -4.48895e-011 -4.96187e-026   
     length 0.582194   
     axis 3.1661e-014 90 90   XYZ
    dof rx
    limits (0.0 90.0)
  end
  begin
     id 23
     name lthumb
     direction 0.707107 -6.34961e-011 0.707107   
     length 0.835918   
     axis -90 45 2.85299e-015   XYZ
    dof rx rz
    limits (-45.0 45.0)
           (-45.0 45.0)
  end
  begin
     id 24 
     name rclavicle
     direction -0.932635 0.324218 -0.15835   
     length 3.65819  
     axis 0 0 0   XYZ 
    dof ry rz
    limits (-10.0 20.0)
           (-20.0 0.0)
  end
  begin
     id 25 
     name rhumerus
     direction -1 -4.48965e-011 -4.02296e-027  
     length 5.44729   
     axis 180 30 90   XYZ
    dof rx ry rz
    limits (-90.0 60.0)
           (-90.0 90.0)
           (-90.0 90.0)
  end
  begin
     id 26 
     name rradius
     direction -1 -4.48957e-011 -8.81087e-027   
     length 3.08821   
     axis 180 30 90   XYZ
    dof rx
    limits (-10.0 170.0)
  end
  begin
     id 27 
     name rwrist
     direction -1 -4.49015e-011 -1.24047e-026   
     length 1.5441   
     axis 9.05591e-015 -90 -90   XYZ
    dof ry
    limits (-180.0 0.0)
  end
  begin
     id 28
     name rhand
     direction -1 -4.4891e-011 -2.48094e-026   
     length 0.821049   
     axis 1.58305e-014 -90 -90   XYZ
    dof rx rz
    limits (-90.0 90.0)
           (-45.0 45.0)
  end
  begin
     id 29
     name rfingers
     direction -1 -4.48985e-011 -4.96187e-026   
     length 0.661951   
     axis 3.1661e-014 -90 -90   XYZ
    dof rx
    limits (0.0 90.0)
  end
  begin
     id 30
     name rthumb
     direction -0.707107 -6.34906e-011 0.707107   
     length 0.950433   
     axis -90 -45 -2.85299e-015   XYZ
    dof rx rz
    limits (-45.0 45.0)
           (-45.0 45.0)
  end
:hierarchy
  begin
    root lhipjoint rhipjoint lowerback
    lhipjoint lfemur
    lfemur ltibia
    ltibia lfoot
    lfoot ltoes
    rhipjoint rfemur
    rfemur rtibia
    rtibia rfoot
    rfoot rtoes
    lowerback upperback
    upperback thorax
    thorax lowerneck lclavicle rclavicle
    lowerneck upperneck
    upperneck head
    lclavicle lhumerus
    lhumerus lradius
    lradius lwrist
    lwrist lhand lthumb
    lhand lfingers
    rclavicle rhumerus
    rhumerus rradius
    rradius rwrist
    rwrist rhand rthumb
    rhand rfingers
  end

#!OML:ASF F:\VICON\USERDATA\INSTALL\rory3\rory3.ASF
:FULLY-SPECIFIED
:DEGREES
180
root 3.05949 17.6981 0.235981 7.84007 92.4473 10.4232
lowerback 6.79027 0.0945711 1.7366
upperback 0.978948 0.239087 -1.29649
thorax -2.78424 0.107097 -2.33639
lowerneck -5.90552 -5.7777 -5.27021
upperneck 7.44299 -8.02947 9.35458
head 3.77976 -3.68495 3.27427
rclavicle 4.17448e-015 1.86858e-014
rhumerus 53.2177 55.6533 -4.02249
rradius 91.4208
rwrist -35.1777
rhand 9.342 17.2178
rfingers 7.12502
rthumb 34.502 -9.45313
lclavicle 4.17448e-015 1.86858e-014
lhumerus 58.9775 -37.8457 23.5645
lradius 86.6835
lwrist 94.2802
lhand -0.420494 6.80586
lfingers 7.12502
lthumb 25.1876 35.1639
rfemur 1.99271 -0.404113 19.6175
rtibia 15.5276
rfoot -18.5746 -9.27651
rtoes -10.1744
lfemur 0.681162 -0.00490727 -15.6716
ltibia 11.2347
lfoot -8.96012 -1.94595
ltoes -4.57105
181
root 3.06247 17.6992 0.239067 7.5964 92.5129 10.1965
lowerback 6.63424 0.0779034 1.62438
upperback 1.09994 0.210607 -1.21616
thorax -2.57444 0.0983457 -2.18581
lowerneck -6.05476 -5.7745 -5.37037
upperneck 7.38715 -8.00879 9.34584
head 3.78985 -3.67624 3.2853
rclavicle 4.96962e-016 -1.11319e-014
rhumerus 54.209 56.1313 -2.57667
rradius 93.1256
rwrist -35.6817
rhand 9.96791 17.4213
rfingers 7.12502
rthumb 35.0959 -9.11232
lclavicle 4.96962e-016 -1.11319e-014
lhumerus 59.064 -37.7185 23.4969
lradius 84.9547
lwrist 93.2497
lhand -0.792258 6.62957
lfingers 7.12502
lthumb 24.8313 35.0372
rfemur 1.99957 -0.400935 19.6398
rtibia 15.5926
rfoot -18.6737 -9.34856
rtoes -10.3864
lfemur 0.737336 -0.00802981 -15.6538
ltibia 11.1582
lfoot -8.87472 -2.04814
ltoes -4.3739
182
root 3.06492 17.6988 0.241582 5.93566 92.5485 8.54432
lowerback 6.58996 0.0648395 1.55463
upperback 1.12875 0.188047 -1.22718
thorax -2.52132 0.0887224 -2.15553
lowerneck -6.09196 -5.76637 -5.42118
upperneck 7.36499 -7.99104 9.34404
head 3.78995 -3.66891 3.29321
rclavicle 2.14936e-015 -3.97569e-016
rhumerus 54.8601 56.5576 -1.63197
rradius 94.8442
rwrist -36.3484
rhand 10.3764 17.5273
rfingers 7.12502
rthumb 35.4832 -8.91453
lclavicle 2.14936e-015 -3.97569e-016
lhumerus 59.3161 -37.8946 23.0361
lradius 83.3372
lwrist 92.0567
lhand -1.38039 6.57785
lfingers 7.12502
lthumb 24.2676 35.062
rfemur 1.98248 -0.418576 19.5824
rtibia 15.6829
rfoot -18.7056 -9.42402
rtoes -10.8109
lfemur 0.824494 -0.0168609 -15.7194
ltibia 11.0127
lfoot -8.81374 -2.08192
ltoes -4.50781
183
root 3.06693 17.6971 0.242405 4.16375 92.594 6.80597
lowerback 6.59967 0.0566528 1.51858
upperback 1.14137 0.174598 -1.25013
thorax -2.51443 0.0826392 -2.1578
lowerneck -6.13905 -5.76437 -5.47462
upperneck 7.41722 -7.98577 9.34181
head 3.81512 -3.66574 3.29971
rclavicle 2.93207e-015 -1.07344e-014
rhumerus 55.2608 56.802 -1.04691
rradius 96.5938
rwrist -37.1646
rhand 10.6896 16.9684
rfingers 7.12502
rthumb 35.7801 -9.40185
lclavicle 2.93207e-015 -1.07344e-014
lhumerus 59.688 -38.2488 22.4215
lradius 81.7193
lwrist 91.0323
lhand -1.62648 6.77906
lfingers 7.12502
lthumb 24.0316 35.2945
rfemur 1.99612 -0.491072 19.5005
rtibia 15.7624
rfoot -18.7264 -9.40991
rtoes -10.68
lfemur 0.937883 -0.0118409 -15.7907
ltibia 10.8691
lfoot -8.76343 -2.14473
ltoes -4.6699
184
root 3.06891 17.6973 0.243928 2.57161 92.6228 5.20557
lowerback 6.59097 0.0330811 1.48133
upperback 1.12299 0.139636 -1.27342
thorax -2.53027 0.0650469 -2.15789
lowerneck -6.08862 -5.74427 -5.50276
upperneck 7.38132 -7.9531 9.31302
head 3.79326 -3.65424 3.29927
rclavicle -3.23025e-016 1.03368e-014
rhumerus 55.6875 56.858 -0.613865
rradius 98.1742
rwrist -37.9597
rhand 10.8203 16.7831
rfingers 7.12502
rthumb 35.904 -9.55699
lclavicle -3.23025e-016 1.03368e-014
lhumerus 60.0092 -38.7379 21.7148
lradius 80.141
lwrist 90.2139
lhand -1.73017 7.2236
lfingers 7.12502
lthumb 23.9322 35.7522
rfemur 1.95285 -0.513924 19.4274
rtibia 15.8573
rfoot -18.7743 -9.37276
rtoes -10.4725
lfemur 1.00942 -0.0158547 -15.8623
ltibia 10.7302
lfoot -8.71951 -2.12845
ltoes -4.80895
